<svg width="48" height="48" viewBox="0 0 48 48" class="item-nav-menu" fill="none" xmlns="http://www.w3.org/2000/svg">
<mask id="mask0_142_1270" style="mask-type:alpha" maskUnits="userSpaceOnUse" x="0" y="0" width="48" height="48">
<rect width="48" height="48" fill="#D9D9D9"/>
</mask>
<g mask="url(#mask0_142_1270)">
<path d="M22.6387 38.4308L9.20028 25.0116C9.04645 24.8577 8.9362 24.7006 8.86953 24.5404C8.80286 24.3801 8.76953 24.2 8.76953 24C8.76953 23.8 8.80286 23.6199 8.86953 23.4596C8.9362 23.2994 9.04645 23.1423 9.20028 22.9885L22.6887 9.51925C22.8913 9.31672 23.1412 9.21545 23.4387 9.21545C23.7361 9.21545 23.9964 9.33339 24.2194 9.56925C24.4553 9.80515 24.5733 10.0718 24.5733 10.3693C24.5733 10.6667 24.4553 10.9334 24.2194 11.1693L12.5233 22.8654H37.5348C37.8528 22.8654 38.1213 22.9718 38.3406 23.1847C38.5598 23.3975 38.6694 23.6692 38.6694 24C38.6694 24.3308 38.5598 24.6026 38.3406 24.8154C38.1213 25.0282 37.8528 25.1346 37.5348 25.1346H12.5233L24.2694 36.9C24.472 37.1026 24.5733 37.3494 24.5733 37.6404C24.5733 37.9314 24.4553 38.1949 24.2194 38.4308C23.9835 38.6666 23.7169 38.7846 23.4195 38.7846C23.122 38.7846 22.8618 38.6666 22.6387 38.4308Z" fill="#213C65"/>
</g>
</svg>
