<svg width="48" height="48" viewBox="0 0 48 48" class="item-nav-menu" fill="none" xmlns="http://www.w3.org/2000/svg">
<mask id="mask0_118_1282" style="mask-type:alpha" maskUnits="userSpaceOnUse" x="0" y="0" width="48" height="48">
<rect width="48" height="48" fill="#D9D9D9"/>
</mask>
<g mask="url(#mask0_118_1282)">
<path d="M7.14235 20.673V17.2885L18.2 6.2308H21.5845L7.14235 20.673ZM7 12.7961V9.3346L10.1039 6.2308H13.5653L7 12.7961ZM31.196 12.6385C30.914 12.3615 30.6185 12.0897 30.3095 11.8231C30.0005 11.5564 29.6743 11.3218 29.3307 11.1193L34.2191 6.2308H37.6037L31.196 12.6385ZM10.0768 30.3731L15.1192 25.3307C15.3141 25.6589 15.5077 25.9538 15.7 26.2153C15.8923 26.4768 16.1064 26.7217 16.3423 26.95L14.1998 28.5654C13.5486 28.7859 12.8819 29.0462 12.1999 29.3462C11.5178 29.6462 10.8101 29.9885 10.0768 30.3731ZM34.0537 17.7923V17.8115C34.0537 17.8243 34.0537 17.8243 34.0537 17.8115C33.9871 17.3782 33.8871 16.9391 33.7537 16.4942C33.6204 16.0493 33.4461 15.6308 33.2307 15.2385L40.9999 7.46925V10.8653L34.0537 17.7923ZM22.6615 9.7885L26.2 6.2308H29.5845L25.873 9.96155C25.5191 9.84619 25.1736 9.75965 24.8365 9.70195C24.4993 9.64429 24.1435 9.61545 23.7692 9.61545C23.5922 9.62825 23.4044 9.65069 23.2057 9.68275C23.007 9.71479 22.8256 9.75004 22.6615 9.7885ZM7 28.8653V25.4807L13.7884 18.6923C13.75 18.8743 13.7147 19.057 13.6827 19.2404C13.6506 19.4237 13.6346 19.5936 13.6346 19.75C13.6346 20.1243 13.6551 20.4852 13.6962 20.8327C13.7372 21.1801 13.832 21.5204 13.9808 21.8538L7 28.8653ZM37.7306 30.2038C37.3819 29.9525 37.0159 29.7455 36.6326 29.5827C36.2492 29.4198 35.8563 29.2576 35.4537 29.0961L40.9999 23.55V26.9345L37.7306 30.2038ZM32.8345 27.0999C32.6602 26.923 32.4813 26.7505 32.298 26.5826C32.1147 26.4146 31.923 26.2486 31.7231 26.0845C32.2872 25.5691 32.7621 24.9896 33.148 24.3461C33.5339 23.7025 33.8704 23.0281 34.1576 22.323L40.9999 15.5V18.9345L32.8345 27.0999ZM24 27C22.0692 27 20.4199 26.316 19.0519 24.9481C17.684 23.5801 17 21.9307 17 20C17 18.0693 17.684 16.4199 19.0519 15.052C20.4199 13.684 22.0692 13.0001 24 13.0001C25.9307 13.0001 27.58 13.684 28.948 15.052C30.3159 16.4199 30.9999 18.0693 30.9999 20C30.9999 21.9307 30.3159 23.5801 28.948 24.9481C27.58 26.316 25.9307 27 24 27ZM9 41V37.8154C9 36.7846 9.26732 35.8596 9.80195 35.0404C10.3365 34.2212 11.0461 33.5872 11.9307 33.1385C13.8154 32.2026 15.775 31.484 17.8096 30.9827C19.8442 30.4814 21.9076 30.2308 24 30.2308C26.0923 30.2308 28.1557 30.4814 30.1903 30.9827C32.2249 31.484 34.1845 32.2026 36.0691 33.1385C36.9409 33.5744 37.6473 34.2083 38.1884 35.0404C38.7294 35.8724 38.9999 36.7974 38.9999 37.8154V41H9Z" fill="#ABABAB"/>
</g>
</svg>
