<svg width="24" height="24" viewBox="0 0 24 24" fill="none" xmlns="http://www.w3.org/2000/svg">
<mask id="mask0_154_5100" style="mask-type:alpha" maskUnits="userSpaceOnUse" x="0" y="0" width="24" height="24">
<rect width="24" height="24" fill="#D9D9D9"/>
</mask>
<g mask="url(#mask0_154_5100)">
<path d="M15.6231 15.9769C15.4782 15.8115 15.4058 15.6282 15.4058 15.4269C15.4058 15.2256 15.4782 15.0526 15.6231 14.9077L17.5308 13H9.86537C9.65255 13 9.47435 12.9282 9.33077 12.7846C9.18718 12.641 9.11539 12.4628 9.11539 12.25C9.11539 12.0372 9.18718 11.859 9.33077 11.7154C9.47435 11.5718 9.65255 11.5 9.86537 11.5H17.5308L15.6135 9.58273C15.4647 9.43402 15.3904 9.25902 15.3904 9.05776C15.3904 8.85647 15.468 8.67826 15.6231 8.52313C15.768 8.36801 15.941 8.29046 16.1423 8.29046C16.3436 8.29046 16.5166 8.36289 16.6615 8.50776L19.7711 11.6173C19.8647 11.7109 19.9307 11.8096 19.9692 11.9135C20.0076 12.0173 20.0269 12.1295 20.0269 12.25C20.0269 12.3705 20.0076 12.4827 19.9692 12.5866C19.9307 12.6904 19.8647 12.7891 19.7711 12.8827L16.6519 16.0019C16.4929 16.1609 16.318 16.2327 16.1269 16.2173C15.9359 16.2019 15.768 16.1218 15.6231 15.9769ZM5.40387 21C4.89875 21 4.47119 20.825 4.12119 20.475C3.77119 20.125 3.59619 19.6974 3.59619 19.1923V5.30773C3.59619 4.8026 3.77119 4.37503 4.12119 4.02503C4.47119 3.67503 4.89875 3.50003 5.40387 3.50003H11.3654C11.5782 3.50003 11.7564 3.57183 11.9 3.71543C12.0436 3.85901 12.1154 4.03721 12.1154 4.25003C12.1154 4.46285 12.0436 4.64105 11.9 4.78463C11.7564 4.92821 11.5782 5.00001 11.3654 5.00001H5.40387C5.32693 5.00001 5.25642 5.03206 5.19232 5.09616C5.1282 5.16027 5.09614 5.2308 5.09614 5.30773V19.1923C5.09614 19.2693 5.1282 19.3398 5.19232 19.4039C5.25642 19.468 5.32693 19.5 5.40387 19.5H11.3654C11.5782 19.5 11.7564 19.5718 11.9 19.7154C12.0436 19.859 12.1154 20.0372 12.1154 20.25C12.1154 20.4628 12.0436 20.641 11.9 20.7846C11.7564 20.9282 11.5782 21 11.3654 21H5.40387Z" fill="#0069B4"/>
</g>
</svg>
