<svg width="48" height="48" class="item-nav-menu" viewBox="0 0 48 48" fill="none" xmlns="http://www.w3.org/2000/svg">
<mask id="mask0_118_1820" style="mask-type:alpha" maskUnits="userSpaceOnUse" x="0" y="0" width="48" height="48">
<rect width="48" height="48" fill="#D9D9D9"/>
</mask>
<g mask="url(#mask0_118_1820)">
<path d="M22.8654 38.8501V30.1116C22.8654 29.7892 22.9748 29.5194 23.1934 29.3024C23.4121 29.0855 23.6839 28.977 24.0088 28.977C24.3337 28.977 24.6026 29.0855 24.8154 29.3024C25.0282 29.5194 25.1346 29.7892 25.1346 30.1116V38.8501L29.0616 34.9231C29.289 34.7001 29.5638 34.5885 29.886 34.5885C30.2082 34.5885 30.4872 34.7018 30.7231 34.9283C30.959 35.1676 31.0769 35.4445 31.0769 35.759C31.0769 36.0735 30.959 36.3487 30.7231 36.5846L25.0116 42.2961C24.7244 42.5833 24.3872 42.7269 24 42.7269C23.6129 42.7269 23.2757 42.5833 22.9885 42.2961L17.277 36.5846C17.0539 36.3616 16.9392 36.0879 16.9327 35.7635C16.9263 35.4392 17.0411 35.159 17.277 34.9231C17.5129 34.7001 17.787 34.5885 18.0994 34.5885C18.4118 34.5885 18.6915 34.7001 18.9385 34.9231L22.8654 38.8501ZM9.14999 25.1346L12.8846 28.8885C13.1077 29.1159 13.2225 29.3907 13.2289 29.7129C13.2353 30.0351 13.1188 30.3077 12.8795 30.5308C12.653 30.7667 12.3792 30.8846 12.0583 30.8846C11.7374 30.8846 11.4655 30.7667 11.2424 30.5308L5.70394 25.0116C5.41678 24.7244 5.27319 24.3872 5.27319 24C5.27319 23.6129 5.41678 23.2757 5.70394 22.9885L11.2731 17.4193C11.5073 17.1962 11.7838 17.0847 12.1026 17.0847C12.4214 17.0847 12.6987 17.1962 12.9346 17.4193C13.1705 17.6552 13.2885 17.9325 13.2885 18.2513C13.2885 18.5701 13.1705 18.8466 12.9346 19.0808L9.14999 22.8654H17.8885C18.2218 22.8654 18.4943 22.971 18.7058 23.182C18.9173 23.393 19.0231 23.6648 19.0231 23.9973C19.0231 24.3299 18.9173 24.6026 18.7058 24.8154C18.4943 25.0282 18.2218 25.1346 17.8885 25.1346H9.14999ZM38.8501 25.1346H30.1616C29.8283 25.1346 29.5526 25.0291 29.3347 24.8181C29.1167 24.6071 29.0077 24.3353 29.0077 24.0027C29.0077 23.6702 29.1162 23.3975 29.3332 23.1847C29.5502 22.9719 29.8199 22.8654 30.1423 22.8654H38.8501L35.1154 19.1115C34.8924 18.8841 34.7776 18.6093 34.7712 18.2871C34.7648 17.965 34.8813 17.6859 35.1206 17.45C35.3471 17.227 35.6208 17.1154 35.9417 17.1154C36.2626 17.1154 36.541 17.227 36.7769 17.45L42.2961 22.9885C42.5833 23.2757 42.7269 23.6129 42.7269 24C42.7269 24.3872 42.5833 24.7244 42.2961 25.0116L36.7769 30.5308C36.5539 30.7539 36.277 30.8686 35.9462 30.875C35.6154 30.8814 35.3385 30.7667 35.1154 30.5308C34.8795 30.3077 34.7616 30.034 34.7616 29.7096C34.7616 29.3853 34.8795 29.1052 35.1154 28.8693L38.8501 25.1346ZM22.8654 9.14999L19.1308 12.8846C18.9077 13.1077 18.6308 13.2225 18.3 13.2289C17.9693 13.2353 17.6924 13.127 17.4693 12.9039C17.2334 12.668 17.1154 12.3906 17.1154 12.0718C17.1154 11.753 17.2334 11.4701 17.4693 11.2231L22.9885 5.70394C23.2757 5.41678 23.6129 5.27319 24 5.27319C24.3872 5.27319 24.7244 5.41678 25.0116 5.70394L30.5308 11.2231C30.7539 11.4462 30.8686 11.7231 30.875 12.0539C30.8814 12.3847 30.7667 12.668 30.5308 12.9039C30.3077 13.127 30.0368 13.2385 29.718 13.2385C29.3992 13.2385 29.1163 13.127 28.8693 12.9039L25.1346 9.14999V17.8577C25.1346 18.1802 25.0253 18.4499 24.8066 18.6668C24.588 18.8838 24.3162 18.9923 23.9913 18.9923C23.6664 18.9923 23.3975 18.8838 23.1847 18.6668C22.9719 18.4499 22.8654 18.1802 22.8654 17.8577V9.14999Z" fill="#ABABAB"/>
</g>
</svg>
