<svg width="48" height="48" class="item-nav-menu" viewBox="0 0 48 48" fill="none" xmlns="http://www.w3.org/2000/svg">
<mask id="mask0_118_1826" style="mask-type:alpha" maskUnits="userSpaceOnUse" x="0" y="0" width="48" height="48">
<rect width="48" height="48" fill="#D9D9D9"/>
</mask>
<g mask="url(#mask0_118_1826)">
<path d="M23.9615 42.9999C21.3692 42.9999 18.9205 42.5005 16.6154 41.5018C14.3103 40.5031 12.2974 39.1435 10.5769 37.423C8.8564 35.7025 7.4968 33.6864 6.4981 31.3749C5.49937 29.0634 5 26.6051 5 24C5 21.3205 5.5077 18.825 6.5231 16.5135C7.53847 14.2019 8.92628 12.191 10.6866 10.4808C12.4468 8.77052 14.5109 7.4295 16.8789 6.4577C19.2468 5.4859 21.7769 5 24.4692 5C26.9487 5 29.3076 5.41283 31.5461 6.2385C33.7845 7.06413 35.7506 8.2154 37.4442 9.6923C39.1377 11.1692 40.4871 12.9218 41.4922 14.95C42.4973 16.9782 42.9999 19.1987 42.9999 21.6115C42.9999 24.9038 42.0557 27.5403 40.1672 29.5211C38.2788 31.5018 35.6781 32.4922 32.3653 32.4922H28.7115C27.9192 32.4922 27.2358 32.7864 26.6615 33.3749C26.0871 33.9634 25.7999 34.6435 25.7999 35.4153C25.7999 36.4051 26.0448 37.191 26.5345 37.773C27.0243 38.3551 27.2691 39.0307 27.2691 39.8C27.2691 40.823 26.9833 41.6121 26.4115 42.1672C25.8397 42.7223 25.023 42.9999 23.9615 42.9999ZM12.5231 24.9923C13.0872 24.9923 13.5839 24.7775 14.0134 24.348C14.4429 23.9185 14.6576 23.4218 14.6576 22.8577C14.6576 22.2936 14.4429 21.7968 14.0134 21.3673C13.5839 20.9378 13.0872 20.7231 12.5231 20.7231C11.959 20.7231 11.4622 20.9378 11.0327 21.3673C10.6032 21.7968 10.3885 22.2936 10.3885 22.8577C10.3885 23.4218 10.6032 23.9185 11.0327 24.348C11.4622 24.7775 11.959 24.9923 12.5231 24.9923ZM18.7461 16.6269C19.3102 16.6269 19.807 16.4121 20.2365 15.9827C20.666 15.5532 20.8807 15.0564 20.8807 14.4923C20.8807 13.9282 20.666 13.4314 20.2365 13.0019C19.807 12.5724 19.3102 12.3577 18.7461 12.3577C18.182 12.3577 17.6852 12.5724 17.2558 13.0019C16.8263 13.4314 16.6115 13.9282 16.6115 14.4923C16.6115 15.0564 16.8263 15.5532 17.2558 15.9827C17.6852 16.4121 18.182 16.6269 18.7461 16.6269ZM29.2538 16.6269C29.8179 16.6269 30.3147 16.4121 30.7442 15.9827C31.1737 15.5532 31.3884 15.0564 31.3884 14.4923C31.3884 13.9282 31.1737 13.4314 30.7442 13.0019C30.3147 12.5724 29.8179 12.3577 29.2538 12.3577C28.6897 12.3577 28.1929 12.5724 27.7634 13.0019C27.3339 13.4314 27.1192 13.9282 27.1192 14.4923C27.1192 15.0564 27.3339 15.5532 27.7634 15.9827C28.1929 16.4121 28.6897 16.6269 29.2538 16.6269ZM35.65 24.9923C36.214 24.9923 36.7108 24.7775 37.1403 24.348C37.5698 23.9185 37.7845 23.4218 37.7845 22.8577C37.7845 22.2936 37.5698 21.7968 37.1403 21.3673C36.7108 20.9378 36.214 20.7231 35.65 20.7231C35.0859 20.7231 34.5891 20.9378 34.1596 21.3673C33.7301 21.7968 33.5154 22.2936 33.5154 22.8577C33.5154 23.4218 33.7301 23.9185 34.1596 24.348C34.5891 24.7775 35.0859 24.9923 35.65 24.9923ZM23.9615 40.7307C24.3282 40.7307 24.5929 40.6557 24.7557 40.5057C24.9185 40.3557 25 40.1205 25 39.8C25 39.3333 24.7551 38.8935 24.2654 38.4807C23.7756 38.0679 23.5307 37.2038 23.5307 35.8884C23.5307 34.3679 24.0275 33.0435 25.0211 31.9153C26.0147 30.7871 27.2589 30.223 28.7538 30.223H32.3653C34.9628 30.223 37.0064 29.4589 38.4961 27.9307C39.9858 26.4025 40.7307 24.2961 40.7307 21.6115C40.7307 17.3012 39.0897 13.8333 35.8077 11.2077C32.5256 8.58202 28.7461 7.2692 24.4692 7.2692C19.6538 7.2692 15.5833 8.88522 12.2577 12.1173C8.93202 15.3493 7.2692 19.3102 7.2692 24C7.2692 28.623 8.89868 32.5673 12.1577 35.8327C15.4166 39.098 19.3512 40.7307 23.9615 40.7307Z" fill="#ABABAB"/>
</g>
</svg>
