<svg width="48" height="48" viewBox="0 0 48 48" class="item-nav-menu" fill="none" xmlns="http://www.w3.org/2000/svg">
<mask id="mask0_118_1814" style="mask-type:alpha" maskUnits="userSpaceOnUse" x="0" y="0" width="48" height="48">
<rect width="48" height="48" fill="#D9D9D9"></rect>
</mask>
<g mask="url(#mask0_118_1814)">
<path d="M7.9423 21.8653C7.53363 21.8653 7.19108 21.7271 6.91465 21.4506C6.63822 21.1742 6.5 20.8316 6.5 20.423V7.9423C6.5 7.53363 6.63822 7.19108 6.91465 6.91465C7.19108 6.63822 7.53363 6.5 7.9423 6.5H20.423C20.8316 6.5 21.1742 6.63822 21.4507 6.91465C21.7271 7.19108 21.8653 7.53363 21.8653 7.9423V20.423C21.8653 20.8316 21.7271 21.1742 21.4507 21.4506C21.1742 21.7271 20.8316 21.8653 20.423 21.8653H7.9423ZM27.5769 21.8653C27.1683 21.8653 26.8257 21.7271 26.5493 21.4506C26.2728 21.1742 26.1346 20.8316 26.1346 20.423V7.9423C26.1346 7.53363 26.2728 7.19108 26.5493 6.91465C26.8257 6.63822 27.1683 6.5 27.5769 6.5H40.0576C40.4663 6.5 40.8088 6.63822 41.0853 6.91465C41.3617 7.19108 41.4999 7.53363 41.4999 7.9423V20.423C41.4999 20.8316 41.3617 21.1742 41.0853 21.4506C40.8088 21.7271 40.4663 21.8653 40.0576 21.8653H27.5769ZM7.9423 41.4999C7.53363 41.4999 7.19108 41.3617 6.91465 41.0853C6.63822 40.8088 6.5 40.4663 6.5 40.0576V27.5769C6.5 27.1683 6.63822 26.8257 6.91465 26.5493C7.19108 26.2728 7.53363 26.1346 7.9423 26.1346H20.423C20.8316 26.1346 21.1742 26.2728 21.4507 26.5493C21.7271 26.8257 21.8653 27.1683 21.8653 27.5769V40.0576C21.8653 40.4663 21.7271 40.8088 21.4507 41.0853C21.1742 41.3617 20.8316 41.4999 20.423 41.4999H7.9423ZM33.8078 41.4999C33.4898 41.4999 33.2243 41.3912 33.0115 41.1737C32.7987 40.9563 32.6923 40.6868 32.6923 40.3653V34.9423H27.2192C26.9218 34.9423 26.6667 34.8326 26.4539 34.6134C26.241 34.3941 26.1346 34.1223 26.1346 33.7982C26.1346 33.4866 26.2433 33.2211 26.4608 33.0019C26.6783 32.7827 26.9477 32.6731 27.2692 32.6731H32.6923V27.2192C32.6923 26.9218 32.8019 26.6667 33.0212 26.4539C33.2405 26.241 33.5122 26.1346 33.8363 26.1346C34.148 26.1346 34.4134 26.2433 34.6327 26.4608C34.8519 26.6783 34.9615 26.9477 34.9615 27.2692V32.6731H40.4153C40.7127 32.6731 40.9679 32.7858 41.1807 33.0114C41.3935 33.2369 41.4999 33.5087 41.4999 33.8267C41.4999 34.1448 41.3912 34.4102 41.1737 34.623C40.9562 34.8358 40.6868 34.9423 40.3653 34.9423H34.9615V40.4153C34.9615 40.7127 34.8487 40.9679 34.6232 41.1807C34.3977 41.3935 34.1259 41.4999 33.8078 41.4999Z" fill="#0069B4"></path>
</g>
</svg>