<svg width="48" height="48" class="item-nav-menu" viewBox="0 0 48 48" fill="none" xmlns="http://www.w3.org/2000/svg">
<mask id="mask0_145_4438" style="mask-type:alpha" maskUnits="userSpaceOnUse" x="0" y="0" width="48" height="48">
<rect width="48" height="48" fill="#D9D9D9"></rect>
</mask>
<g mask="url(#mask0_145_4438)">
<path d="M9.88465 40.9999H13.8077V34.1922H7V38.1153C7 38.8986 7.28495 39.5752 7.85485 40.1451C8.42472 40.715 9.10132 40.9999 9.88465 40.9999ZM16.0769 40.9999H22.8654V34.1922H16.0769V40.9999ZM25.1346 40.9999H31.9423V34.1922H25.1346V40.9999ZM34.2114 40.9999H38.1153C38.8986 40.9999 39.5752 40.715 40.1451 40.1451C40.715 39.5752 40.9999 38.8986 40.9999 38.1153V34.1922H34.2114V40.9999ZM7 13.7885H13.8077V7H9.88465C9.10132 7 8.42472 7.28495 7.85485 7.85485C7.28495 8.42472 7 9.10132 7 9.88465V13.7885ZM7 22.8654H13.8077V16.0577H7V22.8654ZM7 31.923H13.8077V25.1346H7V31.923ZM16.0769 13.7885H22.8654V7H16.0769V13.7885ZM16.0769 22.8654H22.8654V16.0577H16.0769V22.8654ZM16.0769 31.923H22.8654V25.1346H16.0769V31.923ZM25.1346 13.7885H31.9423V7H25.1346V13.7885ZM25.1346 22.8654H31.9423V16.0577H25.1346V22.8654ZM25.1346 31.923H31.9423V25.1346H25.1346V31.923ZM34.2114 13.7885H40.9999V9.88465C40.9999 9.10132 40.715 8.42472 40.1451 7.85485C39.5752 7.28495 38.8986 7 38.1153 7H34.2114V13.7885ZM34.2114 22.8654H40.9999V16.0577H34.2114V22.8654ZM34.2114 31.923H40.9999V25.1346H34.2114V31.923Z" fill="#ABABAB"></path>
</g>
</svg>