<svg width="89" height="58" viewBox="0 0 89 58" fill="none" xmlns="http://www.w3.org/2000/svg">
<mask id="mask0_154_5593" style="mask-type:alpha" maskUnits="userSpaceOnUse" x="0" y="0" width="89" height="58">
<rect x="0.24707" y="0.15152" width="88.2482" height="57.035" fill="#D9D9D9"/>
</mask>
<g mask="url(#mask0_154_5593)">
<path d="M22.3091 46.4924C18.7595 46.4924 15.7271 45.6797 13.2121 44.0543C10.6972 42.4288 9.4397 40.469 9.4397 38.1749V19.1632C9.4397 16.869 10.6972 14.9092 13.2121 13.2838C15.7271 11.6584 18.7595 10.8456 22.3091 10.8456H66.4332C69.9829 10.8456 73.0152 11.6584 75.5302 13.2838C78.0452 14.9092 79.3026 16.869 79.3026 19.1632V38.1749C79.3026 40.469 78.0452 42.4288 75.5302 44.0543C73.0152 45.6797 69.9829 46.4924 66.4332 46.4924H22.3091ZM22.3091 19.7574H66.4332C67.8286 19.7574 69.145 19.8868 70.3825 20.1458C71.6199 20.4048 72.7548 20.7978 73.7872 21.3249V19.1632C73.7872 17.8561 73.0672 16.7372 71.627 15.8064C70.1868 14.8757 68.4556 14.4103 66.4332 14.4103H22.3091C20.2868 14.4103 18.5555 14.8757 17.1154 15.8064C15.6752 16.7372 14.9551 17.8561 14.9551 19.1632V21.3249C15.9875 20.7978 17.1224 20.4048 18.3598 20.1458C19.5973 19.8868 20.9138 19.7574 22.3091 19.7574ZM15.2945 26.8638L56.5901 33.3488C57.0946 33.428 57.6049 33.4319 58.1211 33.3603C58.6373 33.2887 59.1051 33.1417 59.5247 32.9193L72.7619 25.7304C72.1585 25.0144 71.2946 24.434 70.1703 23.9892C69.046 23.5444 67.8003 23.3219 66.4332 23.3219H22.3091C20.5743 23.3219 19.0682 23.6502 17.7906 24.3068C16.5131 24.9634 15.6811 25.8158 15.2945 26.8638Z" fill="#0069B4"/>
</g>
</svg>
