<svg width="18" height="18" viewBox="0 0 18 18" fill="none" xmlns="http://www.w3.org/2000/svg">
<path d="M13.51 12.0098C15.16 12.0098 16.5 13.3498 16.5 14.9998C16.5 15.8298 15.83 16.4998 15 16.4998H3C2.17 16.4998 1.5 15.8298 1.5 14.9998C1.5 13.3498 2.84001 12.0098 4.49001 12.0098H13.5M13.5 10.5098H4.49001C2.01001 10.5098 0 12.5198 0 14.9998C0 16.6598 1.34 17.9998 3 17.9998H15C16.66 17.9998 18 16.6598 18 14.9998C18 12.5198 15.99 10.5098 13.51 10.5098H13.5Z" fill="#0069B4"/>
<path d="M9 1.5C10.65 1.5 12 2.85 12 4.5C12 6.15 10.65 7.5 9 7.5C7.35 7.5 6 6.15 6 4.5C6 2.85 7.35 1.5 9 1.5ZM9 0C6.51 0 4.5 2.01 4.5 4.5C4.5 6.99 6.51 9 9 9C11.49 9 13.5 6.99 13.5 4.5C13.5 2.01 11.49 0 9 0Z" fill="#0069B4"/>
</svg>
